<?xml version="1.0" encoding="utf-8"?>
<svg xmlns="http://www.w3.org/2000/svg" xmlns:xlink="http://www.w3.org/1999/xlink" style="margin: auto; background: rgb(255, 255, 255); display: block; shape-rendering: auto;" width="251px" height="251px" viewBox="0 0 100 100" preserveAspectRatio="xMidYMid">
<g transform="translate(50 50)">
<g>
<animateTransform attributeName="transform" type="rotate" values="0;32.72727272727273" keyTimes="0;1" dur="0.5988023952095808s" repeatCount="indefinite"></animateTransform><path d="M27.712812921102035 -4 L35.712812921102035 -4 L35.712812921102035 4 L27.712812921102035 4 A28 28 0 0 1 25.476065044389085 11.617663700333928 L25.476065044389085 11.617663700333928 L32.206093307038536 15.94279023997871 L27.88096676739375 22.672818502628157 L21.150938504744303 18.347691962983376 A28 28 0 0 1 15.150846521356522 23.546801262300978 L15.150846521356522 23.546801262300978 L18.474166625371613 30.823857225137125 L11.197110662535467 34.147177329152214 L7.8737905585203745 26.87012136631607 A28 28 0 0 1 0.01534127855929243 27.999995797234902 L0.01534127855929243 27.999995797234902 L-1.1231774276269877 35.918567332282365 L-9.04174896267445 34.78004862609608 L-7.903230256488171 26.86147709104862 A28 28 0 0 1 -15.125034711784226 23.563389505063196 L-15.125034711784226 23.563389505063196 L-20.363920583346506 29.60938609989726 L-26.409917178180574 24.37050022833498 L-21.171031306618293 18.324503633500914 A28 28 0 0 1 -25.463319049524742 11.645573535988275 L-25.463319049524742 11.645573535988275 L-33.13926283844072 13.89943399071971 L-35.39312329317215 6.223490201803733 L-27.717179504256176 3.9696297470722954 A28 28 0 0 1 -27.71717950425618 -3.9696297470722888 L-27.71717950425618 -3.9696297470722888 L-35.39312329317216 -6.223490201803724 L-33.13926283844072 -13.899433990719706 L-25.463319049524742 -11.64557353598827 A28 28 0 0 1 -21.171031306618296 -18.32450363350091 L-21.171031306618296 -18.32450363350091 L-26.409917178180578 -24.370500228334976 L-20.363920583346513 -29.609386099897254 L-15.125034711784231 -23.56338950506319 A28 28 0 0 1 -7.903230256488165 -26.86147709104862 L-7.903230256488165 -26.86147709104862 L-9.041748962674447 -34.78004862609608 L-1.123177427627009 -35.918567332282365 L0.015341278559273138 -27.999995797234902 A28 28 0 0 1 7.8737905585203745 -26.87012136631607 L7.8737905585203745 -26.87012136631607 L11.197110662535463 -34.14717732915222 L18.474166625371588 -30.82385722513714 L15.1508465213565 -23.546801262300992 A28 28 0 0 1 21.150938504744314 -18.347691962983365 L21.150938504744314 -18.347691962983365 L27.880966767393765 -22.672818502628147 L32.20609330703853 -15.942790239978716 L25.47606504438908 -11.617663700333935 A28 28 0 0 1 27.712812921102035 -3.999999999999995 M0 -4A4 4 0 1 0 0 4 A4 4 0 1 0 0 -4" fill="#e15b64"></path></g></g>
<!-- [ldio] generated by https://loading.io/ --></svg>